<svg width="22" height="22" viewBox="0 0 22 22" fill="none" xmlns="http://www.w3.org/2000/svg">
<path fill-rule="evenodd" clip-rule="evenodd" d="M11.0384 3.43749C8.04626 3.42125 5.51304 5.97276 5.51721 8.93653L5.51721 8.9375L5.51721 9.625C5.51721 12.7983 4.85186 14.7094 4.21338 15.8125H17.7867C17.1482 14.7094 16.4828 12.7983 16.4828 9.625V9.01484C16.4828 5.96853 14.0512 3.46067 11.0384 3.43749ZM4.14221 8.93799C4.13724 5.21586 7.28655 2.04159 11.0468 2.06251L11.0482 2.06252C14.8413 2.09126 17.8578 5.23795 17.8578 9.01484V9.625C17.8578 12.6042 18.4813 14.268 18.977 15.1243L18.9774 15.125C19.0979 15.3337 19.1614 15.5703 19.1617 15.8113C19.1619 16.0522 19.0988 16.289 18.9787 16.4979C18.8586 16.7068 18.6857 16.8804 18.4773 17.0015C18.269 17.1225 18.0325 17.1866 17.7915 17.1875L17.7891 17.1875H4.21096L4.20854 17.1875C3.96759 17.1866 3.73109 17.1225 3.52273 17.0015C3.31438 16.8804 3.14149 16.7068 3.02138 16.4979C2.90127 16.289 2.83817 16.0522 2.83838 15.8113C2.83859 15.5703 2.90212 15.3337 3.0226 15.125L3.02301 15.1243C3.51878 14.268 4.14221 12.6042 4.14221 9.625V8.93799Z" fill="#05080B"/>
<path fill-rule="evenodd" clip-rule="evenodd" d="M8.25002 15.8125C8.62972 15.8125 8.93752 16.1203 8.93752 16.5V17.1875C8.93752 17.7345 9.15482 18.2591 9.54161 18.6459C9.92841 19.0327 10.453 19.25 11 19.25C11.547 19.25 12.0716 19.0327 12.4584 18.6459C12.8452 18.2591 13.0625 17.7345 13.0625 17.1875V16.5C13.0625 16.1203 13.3703 15.8125 13.75 15.8125C14.1297 15.8125 14.4375 16.1203 14.4375 16.5V17.1875C14.4375 18.0992 14.0754 18.9735 13.4307 19.6182C12.786 20.2628 11.9117 20.625 11 20.625C10.0883 20.625 9.214 20.2628 8.56934 19.6182C7.92468 18.9735 7.56252 18.0992 7.56252 17.1875V16.5C7.56252 16.1203 7.87032 15.8125 8.25002 15.8125Z" fill="#05080B"/>
</svg>
