<svg width="22" height="22" viewBox="0 0 22 22" fill="none" xmlns="http://www.w3.org/2000/svg">
<path fill-rule="evenodd" clip-rule="evenodd" d="M11 7.5625C9.10152 7.5625 7.56249 9.10152 7.56249 11C7.56249 12.8985 9.10152 14.4375 11 14.4375C12.8985 14.4375 14.4375 12.8985 14.4375 11C14.4375 9.10152 12.8985 7.5625 11 7.5625ZM6.18749 11C6.18749 8.34213 8.34212 6.1875 11 6.1875C13.6579 6.1875 15.8125 8.34213 15.8125 11C15.8125 13.6579 13.6579 15.8125 11 15.8125C8.34212 15.8125 6.18749 13.6579 6.18749 11Z" fill="#05080B"/>
<path fill-rule="evenodd" clip-rule="evenodd" d="M8.05598 1.82934C8.2448 1.76838 8.45076 1.79198 8.6209 1.89406L10.6305 3.09985C10.8769 3.08884 11.1236 3.08885 11.3699 3.09987L13.3712 1.90225C13.5399 1.80127 13.7438 1.77738 13.9313 1.83662C15.2447 2.25155 16.4521 2.94694 17.4701 3.87467C17.616 4.00766 17.6978 4.19697 17.6944 4.39438L17.6551 6.73036C17.7908 6.93876 17.9153 7.15423 18.0282 7.37586L20.0653 8.5085C20.2369 8.60387 20.3595 8.76801 20.4022 8.95956C20.7019 10.302 20.7051 11.6936 20.4115 13.0374C20.3693 13.2306 20.2459 13.3962 20.0729 13.492L18.0279 14.6247C17.9151 14.8461 17.7907 15.0614 17.6551 15.2696L17.6944 17.6056C17.6978 17.803 17.616 17.9924 17.4701 18.1253C16.4542 19.051 15.2519 19.7485 13.944 20.1707C13.7552 20.2316 13.5492 20.208 13.3791 20.1059L11.3695 18.9002C11.1231 18.9112 10.8764 18.9112 10.6301 18.9001L8.62881 20.0977C8.46007 20.1987 8.25617 20.2226 8.06866 20.1634C6.75534 19.7485 5.54788 19.0531 4.52988 18.1253C4.38394 17.9923 4.30223 17.803 4.30556 17.6056L4.34493 15.2749C4.21002 15.0643 4.08563 14.8472 3.97221 14.6243L1.93467 13.4915C1.76313 13.3961 1.64053 13.232 1.59777 13.0404C1.29804 11.698 1.29488 10.3064 1.5885 8.96261C1.63071 8.76942 1.75407 8.60376 1.92706 8.50795L3.97212 7.3753C4.08486 7.15387 4.20929 6.93859 4.34489 6.73036L4.30556 4.39438C4.30224 4.19696 4.38396 4.00764 4.5299 3.87465C5.54575 2.94895 6.74807 2.25154 8.05598 1.82934ZM5.68572 4.68932L5.72333 6.92358C5.72577 7.06833 5.68245 7.21015 5.59956 7.32883C5.41515 7.59284 5.25371 7.87216 5.117 8.16373C5.05554 8.29482 4.95427 8.40315 4.82762 8.47329L2.87215 9.55632C2.7011 10.5113 2.70347 11.4893 2.87916 12.4434L4.8286 13.5273C4.95429 13.5971 5.0549 13.7047 5.11627 13.8347C5.25599 14.1308 5.41894 14.4153 5.60361 14.6856C5.6839 14.8032 5.72574 14.9427 5.72333 15.085L5.68574 17.3106C6.42884 17.9383 7.27862 18.4277 8.19459 18.7552L10.1056 17.6116C10.2266 17.5392 10.367 17.5058 10.5076 17.5158C10.8355 17.5393 11.1645 17.5393 11.4923 17.5158C11.6333 17.5057 11.7739 17.5393 11.8951 17.612L13.8122 18.7623C14.7252 18.4296 15.5723 17.9381 16.3143 17.3107L16.2767 15.0764C16.2742 14.9317 16.3175 14.7898 16.4004 14.6712C16.5848 14.4072 16.7463 14.1278 16.883 13.8363C16.9445 13.7052 17.0457 13.5968 17.1724 13.5267L19.1278 12.4437C19.2989 11.4887 19.2965 10.5107 19.1208 9.55661L17.1714 8.47275C17.0452 8.40258 16.9443 8.29447 16.883 8.16373C16.7463 7.87216 16.5848 7.59284 16.4004 7.32883C16.3175 7.21015 16.2742 7.06833 16.2767 6.92358L16.3143 4.68941C15.5712 4.06166 14.7214 3.57235 13.8054 3.2448L11.8944 4.38837C11.7734 4.4608 11.633 4.49425 11.4923 4.48418C11.1645 4.46073 10.8355 4.46073 10.5076 4.48418C10.3667 4.49427 10.226 4.46067 10.1049 4.38796L8.18774 3.23768C7.27477 3.57043 6.42772 4.06187 5.68572 4.68932Z" fill="#05080B"/>
</svg>
