<svg width="20" height="20" viewBox="0 0 20 20" fill="none" xmlns="http://www.w3.org/2000/svg">
<path d="M19.375 16.25H18.75V10C18.75 9.66848 18.6183 9.35054 18.3839 9.11612C18.1495 8.8817 17.8315 8.75 17.5 8.75H13.125V3.75C13.125 3.41848 12.9933 3.10054 12.7589 2.86612C12.5245 2.6317 12.2065 2.5 11.875 2.5H4.375C4.04348 2.5 3.72554 2.6317 3.49112 2.86612C3.2567 3.10054 3.125 3.41848 3.125 3.75V16.25H2.5C2.33424 16.25 2.17527 16.3158 2.05806 16.4331C1.94085 16.5503 1.875 16.7092 1.875 16.875C1.875 17.0408 1.94085 17.1997 2.05806 17.3169C2.17527 17.4342 2.33424 17.5 2.5 17.5H19.375C19.5408 17.5 19.6997 17.4342 19.8169 17.3169C19.9342 17.1997 20 17.0408 20 16.875C20 16.7092 19.9342 16.5503 19.8169 16.4331C19.6997 16.3158 19.5408 16.25 19.375 16.25ZM17.5 10V16.25H13.125V10H17.5ZM4.375 3.75H11.875V16.25H10.625V12.5C10.625 12.3342 10.5592 12.1753 10.4419 12.0581C10.3247 11.9408 10.1658 11.875 10 11.875H6.25C6.08424 11.875 5.92527 11.9408 5.80806 12.0581C5.69085 12.1753 5.625 12.3342 5.625 12.5V16.25H4.375V3.75ZM9.375 16.25H6.875V13.125H9.375V16.25ZM5.625 7.5C5.625 7.33424 5.69085 7.17527 5.80806 7.05806C5.92527 6.94085 6.08424 6.875 6.25 6.875H7.5V5.625C7.5 5.45924 7.56585 5.30027 7.68306 5.18306C7.80027 5.06585 7.95924 5 8.125 5C8.29076 5 8.44973 5.06585 8.56694 5.18306C8.68415 5.30027 8.75 5.45924 8.75 5.625V6.875H10C10.1658 6.875 10.3247 6.94085 10.4419 7.05806C10.5592 7.17527 10.625 7.33424 10.625 7.5C10.625 7.66576 10.5592 7.82473 10.4419 7.94194C10.3247 8.05915 10.1658 8.125 10 8.125H8.75V9.375C8.75 9.54076 8.68415 9.69973 8.56694 9.81694C8.44973 9.93415 8.29076 10 8.125 10C7.95924 10 7.80027 9.93415 7.68306 9.81694C7.56585 9.69973 7.5 9.54076 7.5 9.375V8.125H6.25C6.08424 8.125 5.92527 8.05915 5.80806 7.94194C5.69085 7.82473 5.625 7.66576 5.625 7.5Z" fill="currentColor"/>
</svg>
