<svg width="20" height="20" viewBox="0 0 20 20" fill="none" xmlns="http://www.w3.org/2000/svg">
<path d="M17.1875 12.5C17.1875 12.6854 17.1325 12.8667 17.0295 13.0208C16.9265 13.175 16.7801 13.2952 16.6088 13.3661C16.4375 13.4371 16.249 13.4557 16.0671 13.4195C15.8852 13.3833 15.7182 13.294 15.5871 13.1629C15.456 13.0318 15.3667 12.8648 15.3305 12.6829C15.2943 12.501 15.3129 12.3125 15.3839 12.1412C15.4548 11.9699 15.575 11.8235 15.7292 11.7205C15.8833 11.6175 16.0646 11.5625 16.25 11.5625C16.4986 11.5625 16.7371 11.6613 16.9129 11.8371C17.0887 12.0129 17.1875 12.2514 17.1875 12.5ZM16.832 15.5695C16.6947 16.4546 16.2458 17.2614 15.566 17.8446C14.8863 18.4277 14.0206 18.7488 13.125 18.75H11.25C10.2558 18.749 9.30253 18.3535 8.59949 17.6505C7.89645 16.9475 7.50103 15.9942 7.5 15V11.8352C6.29182 11.6829 5.18072 11.095 4.37521 10.1818C3.5697 9.26855 3.12515 8.09273 3.125 6.875V3.125C3.125 2.95924 3.19085 2.80027 3.30806 2.68306C3.42527 2.56585 3.58424 2.5 3.75 2.5H5.625C5.79076 2.5 5.94973 2.56585 6.06694 2.68306C6.18415 2.80027 6.25 2.95924 6.25 3.125C6.25 3.29076 6.18415 3.44973 6.06694 3.56694C5.94973 3.68415 5.79076 3.75 5.625 3.75H4.375V6.875C4.37496 7.37169 4.47358 7.86345 4.66516 8.32171C4.85673 8.77997 5.13743 9.1956 5.49097 9.54449C5.8445 9.89337 6.26382 10.1685 6.72458 10.354C7.18534 10.5395 7.67835 10.6316 8.175 10.625C10.2148 10.5984 11.875 8.88672 11.875 6.81016V3.75H10.625C10.4592 3.75 10.3003 3.68415 10.1831 3.56694C10.0658 3.44973 10 3.29076 10 3.125C10 2.95924 10.0658 2.80027 10.1831 2.68306C10.3003 2.56585 10.4592 2.5 10.625 2.5H12.5C12.6658 2.5 12.8247 2.56585 12.9419 2.68306C13.0592 2.80027 13.125 2.95924 13.125 3.125V6.81016C13.125 9.37578 11.2086 11.5203 8.75 11.8344V15C8.75 15.663 9.01339 16.2989 9.48223 16.7678C9.95107 17.2366 10.587 17.5 11.25 17.5H13.125C13.6927 17.4991 14.2433 17.3053 14.6864 16.9504C15.1296 16.5956 15.439 16.1007 15.5641 15.5469C14.8092 15.3773 14.1441 14.9338 13.6975 14.3022C13.2508 13.6705 13.0543 12.8957 13.146 12.1275C13.2377 11.3593 13.611 10.6525 14.1938 10.1437C14.7766 9.63492 15.5274 9.36041 16.3009 9.37328C17.0744 9.38615 17.8157 9.68548 18.3812 10.2134C18.9468 10.7412 19.2964 11.4601 19.3625 12.2309C19.4286 13.0017 19.2064 13.7696 18.739 14.386C18.2716 15.0025 17.5921 15.4236 16.832 15.568V15.5695ZM18.125 12.5C18.125 12.1292 18.015 11.7666 17.809 11.4583C17.603 11.15 17.3101 10.9096 16.9675 10.7677C16.6249 10.6258 16.2479 10.5887 15.8842 10.661C15.5205 10.7334 15.1864 10.912 14.9242 11.1742C14.662 11.4364 14.4834 11.7705 14.411 12.1342C14.3387 12.4979 14.3758 12.8749 14.5177 13.2175C14.6596 13.5601 14.9 13.853 15.2083 14.059C15.5166 14.265 15.8792 14.375 16.25 14.375C16.7473 14.375 17.2242 14.1775 17.5758 13.8258C17.9275 13.4742 18.125 12.9973 18.125 12.5Z" fill="currentColor
"/>
</svg>
