<svg width="22" height="22" viewBox="0 0 22 22" fill="none" xmlns="http://www.w3.org/2000/svg">
<path fill-rule="evenodd" clip-rule="evenodd" d="M19.25 11C19.25 11.3797 18.9422 11.6875 18.5625 11.6875L3.4375 11.6875C3.0578 11.6875 2.75 11.3797 2.75 11C2.75 10.6203 3.0578 10.3125 3.4375 10.3125L18.5625 10.3125C18.9422 10.3125 19.25 10.6203 19.25 11Z" fill="#05080B"/>
<path fill-rule="evenodd" clip-rule="evenodd" d="M10.1111 4.32636C10.3796 4.59485 10.3796 5.03015 10.1111 5.29864L4.40977 11L10.1111 16.7014C10.3796 16.9698 10.3796 17.4051 10.1111 17.6736C9.84265 17.9421 9.40735 17.9421 9.13886 17.6736L2.95136 11.4861C2.68288 11.2176 2.68288 10.7823 2.95136 10.5139L9.13886 4.32636C9.40735 4.05788 9.84265 4.05788 10.1111 4.32636Z" fill="#05080B"/>
</svg>
