<svg width="13" height="14" viewBox="0 0 13 14" fill="none" xmlns="http://www.w3.org/2000/svg">
<path fill-rule="evenodd" clip-rule="evenodd" d="M1.625 2.9375C1.625 2.48877 1.98877 2.125 2.4375 2.125H10.5625C11.0112 2.125 11.375 2.48877 11.375 2.9375V11.0625C11.375 11.5112 11.0112 11.875 10.5625 11.875H2.4375C1.98877 11.875 1.625 11.5112 1.625 11.0625V2.9375ZM10.5625 2.9375H2.4375V11.0625H10.5625V2.9375Z" fill="currentColor"/>
<path fill-rule="evenodd" clip-rule="evenodd" d="M8.9375 1.3125C9.16187 1.3125 9.34375 1.49438 9.34375 1.71875V3.34375C9.34375 3.56812 9.16187 3.75 8.9375 3.75C8.71313 3.75 8.53125 3.56812 8.53125 3.34375V1.71875C8.53125 1.49438 8.71313 1.3125 8.9375 1.3125Z" fill="currentColor"/>
<path fill-rule="evenodd" clip-rule="evenodd" d="M4.0625 1.3125C4.28687 1.3125 4.46875 1.49438 4.46875 1.71875V3.34375C4.46875 3.56812 4.28687 3.75 4.0625 3.75C3.83813 3.75 3.65625 3.56812 3.65625 3.34375V1.71875C3.65625 1.49438 3.83813 1.3125 4.0625 1.3125Z" fill="currentColor"/>
<path fill-rule="evenodd" clip-rule="evenodd" d="M1.625 4.96875C1.625 4.74438 1.80688 4.5625 2.03125 4.5625H10.9688C11.1931 4.5625 11.375 4.74438 11.375 4.96875C11.375 5.19312 11.1931 5.375 10.9688 5.375H2.03125C1.80688 5.375 1.625 5.19312 1.625 4.96875Z" fill="currentColor"/>
</svg>
