<svg width="21" height="20" viewBox="0 0 21 20" fill="none" xmlns="http://www.w3.org/2000/svg">
<path d="M8.18644 2.89453C8.16575 2.81502 8.16094 2.73221 8.17229 2.65084C8.18364 2.56946 8.21091 2.49113 8.25256 2.4203C8.29422 2.34948 8.34942 2.28757 8.41502 2.23811C8.48062 2.18864 8.55534 2.1526 8.63488 2.13203C9.96725 1.78841 11.365 1.78841 12.6974 2.13203C12.845 2.16982 12.9737 2.2602 13.0593 2.38619C13.1449 2.51219 13.1816 2.66511 13.1624 2.81624C13.1432 2.96736 13.0695 3.10627 12.9551 3.20686C12.8407 3.30746 12.6935 3.3628 12.5411 3.3625C12.4884 3.36223 12.4359 3.3554 12.3849 3.34219C11.2575 3.05142 10.0748 3.05142 8.94738 3.34219C8.78712 3.38353 8.61701 3.35962 8.47435 3.2757C8.3317 3.19178 8.22816 3.0547 8.18644 2.89453ZM4.86847 4.30782C3.90491 5.28901 3.20603 6.49861 2.83723 7.82344C2.79299 7.98319 2.81402 8.15397 2.8957 8.29821C2.97739 8.44246 3.11302 8.54834 3.27277 8.59258C3.43252 8.63682 3.60331 8.61578 3.74755 8.5341C3.89179 8.45242 3.99768 8.31679 4.04191 8.15703C4.35369 7.0356 4.94508 6.01169 5.76066 5.18125C5.86734 5.06125 5.92375 4.9048 5.91818 4.74434C5.91262 4.58388 5.84551 4.43171 5.73078 4.31939C5.61605 4.20707 5.46249 4.14321 5.30194 4.14105C5.1414 4.1389 4.98618 4.19861 4.86847 4.30782ZM4.04191 11.8398C4.01996 11.7607 3.98264 11.6867 3.93208 11.6221C3.88153 11.5574 3.81873 11.5033 3.74727 11.4629C3.67581 11.4225 3.5971 11.3965 3.51561 11.3866C3.43413 11.3766 3.35148 11.3827 3.27238 11.4047C3.19328 11.4266 3.11928 11.464 3.0546 11.5145C2.98992 11.5651 2.93584 11.6279 2.89543 11.6993C2.85502 11.7708 2.82908 11.8495 2.8191 11.931C2.80911 12.0125 2.81527 12.0951 2.83723 12.1742C3.20625 13.499 3.90511 14.7085 4.86847 15.6898C4.98471 15.8081 5.14315 15.8752 5.30893 15.8766C5.47471 15.878 5.63425 15.8135 5.75246 15.6973C5.87067 15.581 5.93786 15.4226 5.93925 15.2568C5.94064 15.091 5.87612 14.9315 5.75988 14.8133C4.9453 13.9831 4.35427 12.9602 4.04191 11.8398ZM12.3849 16.6578C11.2575 16.9489 10.0747 16.9489 8.94738 16.6578C8.86746 16.6359 8.78397 16.63 8.70177 16.6407C8.61958 16.6513 8.54031 16.6781 8.4686 16.7197C8.39688 16.7612 8.33414 16.8166 8.28403 16.8826C8.23393 16.9487 8.19745 17.024 8.17673 17.1042C8.156 17.1845 8.15145 17.2681 8.16333 17.3501C8.17521 17.4321 8.20328 17.5109 8.24591 17.582C8.28855 17.6531 8.3449 17.715 8.41167 17.7641C8.47845 17.8132 8.55433 17.8485 8.63488 17.868C9.96725 18.2116 11.365 18.2116 12.6974 17.868C12.8556 17.8245 12.9904 17.7206 13.0727 17.5786C13.1549 17.4366 13.1781 17.2679 13.137 17.109C13.096 16.9501 12.9941 16.8137 12.8534 16.7293C12.7127 16.6449 12.5444 16.6192 12.3849 16.6578ZM18.0607 11.4063C17.9815 11.3843 17.8988 11.3782 17.8173 11.3882C17.7358 11.3982 17.657 11.4242 17.5855 11.4647C17.5141 11.5052 17.4513 11.5594 17.4008 11.6241C17.3502 11.6889 17.313 11.763 17.2911 11.8422C16.9795 12.9635 16.3881 13.9872 15.5724 14.8172C15.5149 14.8758 15.4695 14.9451 15.4388 15.0212C15.4081 15.0974 15.3926 15.1788 15.3934 15.2609C15.3942 15.343 15.4111 15.4241 15.4432 15.4996C15.4753 15.5752 15.522 15.6437 15.5806 15.7012C15.6392 15.7587 15.7085 15.8041 15.7846 15.8348C15.8608 15.8655 15.9422 15.8809 16.0243 15.8802C16.1064 15.8794 16.1875 15.8625 16.263 15.8304C16.3386 15.7982 16.4071 15.7516 16.4646 15.693C17.4283 14.7119 18.1272 13.5022 18.4958 12.1773C18.518 12.0981 18.5244 12.0153 18.5145 11.9337C18.5046 11.852 18.4788 11.7731 18.4383 11.7015C18.3979 11.6298 18.3437 11.5669 18.2789 11.5162C18.2141 11.4655 18.1399 11.4282 18.0607 11.4063ZM17.2903 8.16094C17.3123 8.24004 17.3496 8.31404 17.4002 8.37872C17.4507 8.4434 17.5135 8.49749 17.585 8.53789C17.6564 8.5783 17.7352 8.60424 17.8166 8.61423C17.8981 8.62421 17.9808 8.61805 18.0599 8.5961C18.139 8.57414 18.213 8.53682 18.2777 8.48627C18.3423 8.43571 18.3964 8.37291 18.4368 8.30145C18.4772 8.23 18.5032 8.15128 18.5132 8.0698C18.5232 7.98832 18.517 7.90567 18.495 7.82656C18.1264 6.50167 17.4275 5.29203 16.4638 4.31094C16.4062 4.25241 16.3377 4.20579 16.2621 4.17374C16.1866 4.14169 16.1054 4.12484 16.0233 4.12415C15.9412 4.12346 15.8598 4.13895 15.7837 4.16972C15.7076 4.2005 15.6383 4.24596 15.5798 4.30352C15.5213 4.36107 15.4747 4.4296 15.4426 4.50517C15.4106 4.58074 15.3937 4.66189 15.393 4.74397C15.3923 4.82606 15.4078 4.90748 15.4386 4.98358C15.4694 5.05968 15.5148 5.12897 15.5724 5.1875C16.3872 6.01715 16.9783 7.03993 17.2903 8.16016V8.16094Z" fill="#D6EBF8"/>
</svg>
