<svg width="11" height="10" viewBox="0 0 11 10" fill="none" xmlns="http://www.w3.org/2000/svg">
<path d="M5.28516 0.9375C4.48167 0.9375 3.69623 1.17576 3.02815 1.62215C2.36008 2.06855 1.83938 2.70302 1.5319 3.44535C1.22442 4.18767 1.14397 5.00451 1.30072 5.79255C1.45747 6.5806 1.84439 7.30447 2.41254 7.87262C2.98069 8.44077 3.70456 8.82769 4.4926 8.98444C5.28065 9.14119 6.09748 9.06074 6.83981 8.75326C7.58213 8.44578 8.21661 7.92508 8.663 7.257C9.1094 6.58893 9.34766 5.80349 9.34766 5C9.34652 3.92291 8.91814 2.89025 8.15652 2.12863C7.3949 1.36701 6.36225 0.938637 5.28516 0.9375ZM5.28516 8.4375C4.60528 8.4375 3.94068 8.23589 3.37539 7.85818C2.81009 7.48046 2.3695 6.9436 2.10932 6.31547C1.84915 5.68735 1.78107 4.99619 1.91371 4.32938C2.04635 3.66257 2.37374 3.05006 2.85448 2.56932C3.33522 2.08858 3.94773 1.76119 4.61454 1.62855C5.28134 1.49591 5.97251 1.56399 6.60063 1.82416C7.22875 2.08434 7.76562 2.52493 8.14333 3.09023C8.52105 3.65552 8.72266 4.32013 8.72266 5C8.72162 5.91136 8.35913 6.78511 7.7147 7.42954C7.07026 8.07397 6.19652 8.43647 5.28516 8.4375ZM7.78516 5C7.78516 5.08288 7.75223 5.16237 7.69363 5.22097C7.63502 5.27958 7.55554 5.3125 7.47266 5.3125H5.28516C5.20228 5.3125 5.12279 5.27958 5.06419 5.22097C5.00558 5.16237 4.97266 5.08288 4.97266 5V2.8125C4.97266 2.72962 5.00558 2.65013 5.06419 2.59153C5.12279 2.53292 5.20228 2.5 5.28516 2.5C5.36804 2.5 5.44752 2.53292 5.50613 2.59153C5.56473 2.65013 5.59766 2.72962 5.59766 2.8125V4.6875H7.47266C7.55554 4.6875 7.63502 4.72042 7.69363 4.77903C7.75223 4.83763 7.78516 4.91712 7.78516 5Z" fill="#4B4D4F"/>
</svg>
