<svg width="16" height="16" viewBox="0 0 16 16" fill="none" xmlns="http://www.w3.org/2000/svg">
<path d="M8 8.75C8.41421 8.75 8.75 8.41421 8.75 8C8.75 7.58579 8.41421 7.25 8 7.25C7.58579 7.25 7.25 7.58579 7.25 8C7.25 8.41421 7.58579 8.75 8 8.75Z" fill="currentColor"/>
<path d="M12 8.75C12.4142 8.75 12.75 8.41421 12.75 8C12.75 7.58579 12.4142 7.25 12 7.25C11.5858 7.25 11.25 7.58579 11.25 8C11.25 8.41421 11.5858 8.75 12 8.75Z" fill="currentColor"/>
<path d="M4 8.75C4.41421 8.75 4.75 8.41421 4.75 8C4.75 7.58579 4.41421 7.25 4 7.25C3.58579 7.25 3.25 7.58579 3.25 8C3.25 8.41421 3.58579 8.75 4 8.75Z" fill="currentColor"/>
</svg>
