<svg width="11" height="4" viewBox="0 0 11 4" fill="none" xmlns="http://www.w3.org/2000/svg">
    <path d="M1.824 3.284C1.584 3.284 1.36 3.224 1.152 3.104C0.952 2.984 0.788 2.816 0.66 2.6C0.54 2.384 0.48 2.132 0.48 1.844C0.48 1.556 0.54 1.304 0.66 1.088C0.788 0.872 0.952 0.704 1.152 0.584C1.36 0.456 1.584 0.392 1.824 0.392C2.064 0.392 2.284 0.456 2.484 0.584C2.692 0.704 2.856 0.872 2.976 1.088C3.104 1.304 3.168 1.556 3.168 1.844C3.168 2.132 3.104 2.384 2.976 2.6C2.856 2.816 2.692 2.984 2.484 3.104C2.284 3.224 2.064 3.284 1.824 3.284ZM5.46853 3.284C5.22853 3.284 5.00453 3.224 4.79653 3.104C4.59653 2.984 4.43253 2.816 4.30453 2.6C4.18453 2.384 4.12453 2.132 4.12453 1.844C4.12453 1.556 4.18453 1.304 4.30453 1.088C4.43253 0.872 4.59653 0.704 4.79653 0.584C5.00453 0.456 5.22853 0.392 5.46853 0.392C5.70853 0.392 5.92853 0.456 6.12853 0.584C6.33653 0.704 6.50053 0.872 6.62053 1.088C6.74853 1.304 6.81253 1.556 6.81253 1.844C6.81253 2.132 6.74853 2.384 6.62053 2.6C6.50053 2.816 6.33653 2.984 6.12853 3.104C5.92853 3.224 5.70853 3.284 5.46853 3.284ZM9.11306 3.284C8.87306 3.284 8.64906 3.224 8.44106 3.104C8.24106 2.984 8.07706 2.816 7.94906 2.6C7.82906 2.384 7.76906 2.132 7.76906 1.844C7.76906 1.556 7.82906 1.304 7.94906 1.088C8.07706 0.872 8.24106 0.704 8.44106 0.584C8.64906 0.456 8.87306 0.392 9.11306 0.392C9.35306 0.392 9.57306 0.456 9.77306 0.584C9.98106 0.704 10.1451 0.872 10.2651 1.088C10.3931 1.304 10.4571 1.556 10.4571 1.844C10.4571 2.132 10.3931 2.384 10.2651 2.6C10.1451 2.816 9.98106 2.984 9.77306 3.104C9.57306 3.224 9.35306 3.284 9.11306 3.284Z" fill="#05080B"/>
</svg>