<svg width="13" height="13" viewBox="0 0 13 13" fill="none" xmlns="http://www.w3.org/2000/svg">
<path fill-rule="evenodd" clip-rule="evenodd" d="M1.84555 4.38461C2.81398 3.41618 4.33364 2.4375 6.5 2.4375C8.66636 2.4375 10.186 3.41618 11.1544 4.38461C11.6375 4.86765 11.9858 5.34999 12.2139 5.71226C12.3281 5.8937 12.4128 6.04595 12.4696 6.15439C12.498 6.20864 12.5195 6.25202 12.5343 6.2827C12.5417 6.29805 12.5474 6.31023 12.5515 6.31902L12.5563 6.32964L12.5578 6.33299L12.5584 6.33416L12.5586 6.33463C12.5586 6.33463 12.5587 6.33501 12.1875 6.5C12.5587 6.66499 12.5586 6.66537 12.5586 6.66537L12.5584 6.66584L12.5578 6.66701L12.5563 6.67036L12.5515 6.68098C12.5474 6.68977 12.5417 6.70195 12.5343 6.7173C12.5195 6.74798 12.498 6.79136 12.4696 6.84561C12.4128 6.95405 12.3281 7.1063 12.2139 7.28774C11.9858 7.65001 11.6375 8.13235 11.1544 8.61539C10.186 9.58382 8.66636 10.5625 6.5 10.5625C4.33364 10.5625 2.81398 9.58382 1.84555 8.61539C1.36251 8.13235 1.01419 7.65001 0.786101 7.28774C0.671856 7.1063 0.587192 6.95405 0.53039 6.84561C0.501973 6.79136 0.480484 6.74798 0.465709 6.7173C0.458321 6.70195 0.452608 6.68977 0.448543 6.68098L0.443678 6.67036L0.442166 6.66701L0.441639 6.66584L0.441433 6.66537C0.441433 6.66537 0.441264 6.66499 0.8125 6.5C0.441264 6.33501 0.441433 6.33463 0.441433 6.33463L0.441639 6.33416L0.442166 6.33299L0.443678 6.32964L0.448543 6.31902C0.452608 6.31023 0.458321 6.29805 0.465709 6.2827C0.480484 6.25202 0.501973 6.20864 0.53039 6.15439C0.587192 6.04595 0.671856 5.8937 0.786101 5.71226C1.01419 5.34999 1.36251 4.86765 1.84555 4.38461ZM0.8125 6.5L0.441264 6.33501C0.394579 6.44005 0.394579 6.55995 0.441264 6.66499L0.8125 6.5ZM1.26673 6.5C1.31453 6.58952 1.38316 6.71109 1.47366 6.85483C1.67721 7.17812 1.98905 7.60984 2.42007 8.04086C3.27977 8.90056 4.60386 9.75 6.5 9.75C8.39614 9.75 9.72023 8.90056 10.5799 8.04086C11.0109 7.60984 11.3228 7.17812 11.5263 6.85483C11.6168 6.71109 11.6855 6.58952 11.7333 6.5C11.6855 6.41048 11.6168 6.28891 11.5263 6.14517C11.3228 5.82188 11.0109 5.39016 10.5799 4.95914C9.72023 4.09944 8.39614 3.25 6.5 3.25C4.60386 3.25 3.27977 4.09944 2.42007 4.95914C1.98905 5.39016 1.67721 5.82188 1.47366 6.14517C1.38316 6.28891 1.31453 6.41048 1.26673 6.5ZM12.1875 6.5L12.5587 6.66499C12.6054 6.55995 12.6054 6.44005 12.5587 6.33501L12.1875 6.5Z" fill="#4B4D4F"/>
<path fill-rule="evenodd" clip-rule="evenodd" d="M6.5 4.875C5.60254 4.875 4.875 5.60254 4.875 6.5C4.875 7.39746 5.60254 8.125 6.5 8.125C7.39746 8.125 8.125 7.39746 8.125 6.5C8.125 5.60254 7.39746 4.875 6.5 4.875ZM4.0625 6.5C4.0625 5.15381 5.15381 4.0625 6.5 4.0625C7.84619 4.0625 8.9375 5.15381 8.9375 6.5C8.9375 7.84619 7.84619 8.9375 6.5 8.9375C5.15381 8.9375 4.0625 7.84619 4.0625 6.5Z" fill="#4B4D4F"/>
</svg>
