<svg width="16" height="18" viewBox="0 0 16 18" fill="none" xmlns="http://www.w3.org/2000/svg">
<path fill-rule="evenodd" clip-rule="evenodd" d="M2.30211 4.1875C2.30206 4.1875 2.30215 4.1875 2.30211 4.1875H11.6974C11.8671 4.18755 12.0333 4.23697 12.1755 4.32972C12.3176 4.42248 12.4297 4.55457 12.4981 4.7099C12.5665 4.86524 12.5882 5.03711 12.5607 5.20458C12.5332 5.37173 12.4577 5.5273 12.3435 5.6524C12.3433 5.65264 12.3431 5.65288 12.3429 5.65313L8.74976 9.60719V12.7007C8.75071 12.8462 8.71511 12.9897 8.64621 13.1179C8.57743 13.2459 8.47768 13.3546 8.35608 13.4341L6.60781 14.5978L6.60604 14.599C6.47475 14.6854 6.32259 14.7349 6.16555 14.7423C6.00851 14.7496 5.8524 14.7145 5.71362 14.6406C5.57485 14.5668 5.45854 14.4569 5.37692 14.3225C5.29529 14.1882 5.25138 14.0343 5.24979 13.8771L5.24974 13.8727L5.24976 9.60721L5.2486 9.60597L1.65666 5.65313C1.65646 5.65291 1.65627 5.6527 1.65607 5.65248C1.54183 5.52737 1.46637 5.37177 1.43886 5.20458C1.4113 5.03711 1.43304 4.86524 1.50143 4.7099C1.56983 4.55457 1.68192 4.42248 1.82406 4.32972C1.9661 4.23703 2.13202 4.18762 2.30163 4.1875M11.6973 5.0625H2.30225L2.30324 5.06358L5.89453 9.01564C6.0439 9.17686 6.12625 9.38895 6.12476 9.60875V13.8682L7.87475 12.7034L7.87474 12.7023L7.87476 9.60875C7.87328 9.38895 7.95562 9.17686 8.105 9.01564L11.6963 5.06359L11.6973 5.0625Z" fill="currentColor"/>
</svg>
