<svg width="232" height="229" viewBox="0 0 232 229" fill="none" xmlns="http://www.w3.org/2000/svg">
<rect x="0.5" y="0.5" width="231" height="227.423" rx="11.5" stroke="#A7AAAD"/>
<g opacity="0.2">
<path d="M130 105C126.134 105 123 108.134 123 112C123 115.866 126.134 119 130 119C133.866 119 137 115.866 137 112C137 108.134 133.866 105 130 105Z" fill="#05080B"/>
<path d="M119.401 128.814L122.244 124.678C122.679 124.045 123.399 123.666 124.167 123.666C124.935 123.666 125.654 124.045 126.09 124.678L138.923 143.345C139.414 144.059 139.469 144.986 139.065 145.753C138.662 146.519 137.867 147 137 147H95.0003C94.178 147 93.4164 146.567 92.9956 145.86C92.5748 145.154 92.557 144.278 92.9486 143.555L108.115 115.555C108.523 114.802 109.311 114.333 110.167 114.333C111.023 114.333 111.811 114.802 112.219 115.555L119.401 128.814Z" fill="#05080B"/>
</g>
</svg>
