<svg width="21" height="21" viewBox="0 0 21 21" fill="none" xmlns="http://www.w3.org/2000/svg">
<path fill-rule="evenodd" clip-rule="evenodd" d="M10.0996 8.12122C8.7189 8.12122 7.59961 9.2405 7.59961 10.6212C7.59961 12.0019 8.7189 13.1212 10.0996 13.1212C11.4803 13.1212 12.5996 12.0019 12.5996 10.6212C12.5996 9.2405 11.4803 8.12122 10.0996 8.12122ZM6.34961 10.6212C6.34961 8.55015 8.02854 6.87122 10.0996 6.87122C12.1707 6.87122 13.8496 8.55015 13.8496 10.6212C13.8496 12.6923 12.1707 14.3712 10.0996 14.3712C8.02854 14.3712 6.34961 12.6923 6.34961 10.6212Z" fill="#87888A"/>
<path fill-rule="evenodd" clip-rule="evenodd" d="M6.66211 4.05872C4.93622 4.05872 3.53711 5.45783 3.53711 7.18372V14.0587C3.53711 15.7846 4.93622 17.1837 6.66211 17.1837H13.5371C15.263 17.1837 16.6621 15.7846 16.6621 14.0587V7.18372C16.6621 5.45783 15.263 4.05872 13.5371 4.05872H6.66211ZM2.28711 7.18372C2.28711 4.76747 4.24586 2.80872 6.66211 2.80872H13.5371C15.9534 2.80872 17.9121 4.76747 17.9121 7.18372V14.0587C17.9121 16.475 15.9534 18.4337 13.5371 18.4337H6.66211C4.24586 18.4337 2.28711 16.475 2.28711 14.0587V7.18372Z" fill="#87888A"/>
<path d="M14.1621 7.49622C14.6799 7.49622 15.0996 7.07648 15.0996 6.55872C15.0996 6.04095 14.6799 5.62122 14.1621 5.62122C13.6443 5.62122 13.2246 6.04095 13.2246 6.55872C13.2246 7.07648 13.6443 7.49622 14.1621 7.49622Z" fill="#87888A"/>
</svg>
