<svg width="12" height="12" viewBox="0 0 12 12" fill="none" xmlns="http://www.w3.org/2000/svg">
<path fill-rule="evenodd" clip-rule="evenodd" d="M9.64017 2.35983C9.78661 2.50628 9.78661 2.74372 9.64017 2.89017L2.89017 9.64017C2.74372 9.78661 2.50628 9.78661 2.35983 9.64017C2.21339 9.49372 2.21339 9.25628 2.35983 9.10983L9.10983 2.35983C9.25628 2.21339 9.49372 2.21339 9.64017 2.35983Z" fill="#05080B"/>
<path fill-rule="evenodd" clip-rule="evenodd" d="M2.35983 2.35983C2.50628 2.21339 2.74372 2.21339 2.89017 2.35983L9.64017 9.10983C9.78661 9.25628 9.78661 9.49372 9.64017 9.64017C9.49372 9.78661 9.25628 9.78661 9.10983 9.64017L2.35983 2.89017C2.21339 2.74372 2.21339 2.50628 2.35983 2.35983Z" fill="#05080B"/>
</svg>
