<svg width="21" height="21" viewBox="0 0 21 21" fill="none" xmlns="http://www.w3.org/2000/svg">
<path fill-rule="evenodd" clip-rule="evenodd" d="M2.48633 4.05872C2.48633 3.36836 3.04597 2.80872 3.73633 2.80872H16.8613C17.5517 2.80872 18.1113 3.36836 18.1113 4.05872V17.1837C18.1113 17.8741 17.5517 18.4337 16.8613 18.4337H3.73633C3.04597 18.4337 2.48633 17.8741 2.48633 17.1837V4.05872ZM16.8613 4.05872H3.73633V17.1837H16.8613V4.05872Z" fill="#87888A"/>
<path d="M8.11133 6.87122C8.11133 7.38898 7.6916 7.80872 7.17383 7.80872C6.65606 7.80872 6.23633 7.38898 6.23633 6.87122C6.23633 6.35345 6.65606 5.93372 7.17383 5.93372C7.6916 5.93372 8.11133 6.35345 8.11133 6.87122Z" fill="#87888A"/>
<path d="M7.79883 9.37122C7.79883 9.02604 7.51901 8.74622 7.17383 8.74622C6.82865 8.74622 6.54883 9.02604 6.54883 9.37122V14.3712C6.54883 14.7164 6.82865 14.9962 7.17383 14.9962C7.51901 14.9962 7.79883 14.7164 7.79883 14.3712V9.37122Z" fill="#87888A"/>
<path d="M9.67383 8.74622C9.97073 8.74622 10.2193 8.95325 10.283 9.23082C10.7454 8.91728 11.2946 8.74622 11.8613 8.74622C12.6072 8.74622 13.3226 9.04253 13.8501 9.56998C14.3775 10.0974 14.6738 10.8128 14.6738 11.5587V14.3712C14.6738 14.7164 14.394 14.9962 14.0488 14.9962C13.7037 14.9962 13.4238 14.7164 13.4238 14.3712V11.5587C13.4238 11.1443 13.2592 10.7469 12.9662 10.4539C12.6732 10.1608 12.2757 9.99622 11.8613 9.99622C11.4469 9.99622 11.0495 10.1608 10.7565 10.4539C10.4634 10.7469 10.2988 11.1443 10.2988 11.5587V14.3712C10.2988 14.7164 10.019 14.9962 9.67383 14.9962C9.32865 14.9962 9.04883 14.7164 9.04883 14.3712V9.37122C9.04883 9.02604 9.32865 8.74622 9.67383 8.74622Z" fill="#87888A"/>
</svg>
