<svg width="60" height="60" viewBox="20 20 60 60" fill="none" xmlns="http://www.w3.org/2000/svg">
  <path d="M19.5654 50C19.5654 33.1913 33.1915 19.5652 50.0002 19.5652V50H19.5654Z" fill="#0B4F8C"/>
  <path d="M80.4348 50C80.4348 66.8087 66.8087 80.4348 50 80.4348V50H80.4348Z" fill="#2B95D6"/>
  <path d="M50 19.5652C66.8087 19.5652 80.4348 33.1913 80.4348 50H50V19.5652Z" fill="#0B4F8C"/>
  <path d="M50.0002 80.4348C33.1915 80.4348 19.5654 66.8087 19.5654 50H50.0002V80.4348Z" fill="#2B95D6"/>
  <path d="M50 63.0435C57.2037 63.0435 63.0435 57.2037 63.0435 50C63.0435 42.7963 57.2037 36.9565 50 36.9565C42.7963 36.9565 36.9565 42.7963 36.9565 50C36.9565 57.2037 42.7963 63.0435 50 63.0435Z" fill="white"/>
  <path d="M49.9998 43.4783V56.5217M56.5215 50H43.478" stroke="#2B95D6" stroke-width="3" stroke-linecap="round"/>
</svg>
