<svg width="126" height="38" viewBox="0 2 126 38" fill="none" xmlns="http://www.w3.org/2000/svg">
  <path d="M13.9545 40.554C11.0492 40.554 8.55019 39.9384 6.45739 38.7074C4.37689 37.464 2.77652 35.7405 1.65625 33.5369C0.548295 31.3333 -0.00568178 28.7973 -0.00568178 25.929C-0.00568178 23.0237 0.554451 20.4754 1.67472 18.2841C2.80729 16.0805 4.41383 14.3632 6.49432 13.1321C8.57481 11.8887 11.0492 11.267 13.9176 11.267C16.392 11.267 18.5587 11.7164 20.4176 12.6151C22.2765 13.5137 23.7476 14.7756 24.831 16.4006C25.9143 18.0256 26.5114 19.9337 26.6222 22.125H19.1989C18.9896 20.7093 18.4356 19.5705 17.5369 18.7088C16.6506 17.8348 15.4872 17.3977 14.0469 17.3977C12.8281 17.3977 11.7633 17.7301 10.8523 18.3949C9.9536 19.0473 9.25189 20.0014 8.74716 21.2571C8.24242 22.5128 7.99006 24.0331 7.99006 25.8182C7.99006 27.6278 8.23627 29.1667 8.72869 30.4347C9.23343 31.7027 9.94129 32.669 10.8523 33.3338C11.7633 33.9986 12.8281 34.331 14.0469 34.331C14.9455 34.331 15.7519 34.1463 16.4659 33.777C17.1922 33.4077 17.7893 32.8722 18.2571 32.1705C18.7372 31.4564 19.0511 30.6009 19.1989 29.6037H26.6222C26.4991 31.7704 25.9081 33.6785 24.8494 35.3281C23.803 36.9654 22.3565 38.2457 20.5099 39.169C18.6634 40.0923 16.4782 40.554 13.9545 40.554ZM38.2252 2.18182V40H30.3587V2.18182H38.2252ZM43.2267 40V11.6364H51.0932V40H43.2267ZM47.1784 7.98011C46.0089 7.98011 45.0056 7.59233 44.1685 6.81676C43.3437 6.02888 42.9313 5.08712 42.9313 3.99148C42.9313 2.90814 43.3437 1.97869 44.1685 1.20312C45.0056 0.415245 46.0089 0.0213048 47.1784 0.0213048C48.3479 0.0213048 49.3451 0.415245 50.1699 1.20312C51.007 1.97869 51.4256 2.90814 51.4256 3.99148C51.4256 5.08712 51.007 6.02888 50.1699 6.81676C49.3451 7.59233 48.3479 7.98011 47.1784 7.98011ZM63.9611 23.6023V40H56.0947V11.6364H63.5918V16.6406H63.9242C64.5521 14.991 65.6046 13.6861 67.0819 12.7259C68.5592 11.7533 70.3504 11.267 72.4555 11.267C74.4252 11.267 76.1425 11.6979 77.6075 12.5597C79.0724 13.4214 80.2112 14.6525 81.0237 16.2528C81.8362 17.8409 82.2424 19.7367 82.2424 21.9403V40H74.3759V23.3438C74.3882 21.608 73.9451 20.2538 73.0464 19.2812C72.1477 18.2964 70.9105 17.804 69.3347 17.804C68.276 17.804 67.3404 18.0317 66.5279 18.4872C65.7277 18.9427 65.0999 19.6075 64.6444 20.4815C64.2012 21.3433 63.9735 22.3835 63.9611 23.6023ZM87.1423 40V11.6364H95.0088V40H87.1423ZM91.094 7.98011C89.9245 7.98011 88.9212 7.59233 88.0841 6.81676C87.2593 6.02888 86.8469 5.08712 86.8469 3.99148C86.8469 2.90814 87.2593 1.97869 88.0841 1.20312C88.9212 0.415245 89.9245 0.0213048 91.094 0.0213048C92.2635 0.0213048 93.2607 0.415245 94.0855 1.20312C94.9226 1.97869 95.3412 2.90814 95.3412 3.99148C95.3412 5.08712 94.9226 6.02888 94.0855 6.81676C93.2607 7.59233 92.2635 7.98011 91.094 7.98011ZM106.584 11.6364L111.792 21.5526L117.128 11.6364H125.198L116.98 25.8182L125.419 40H117.387L111.792 30.1946L106.289 40H98.1637L106.584 25.8182L98.4592 11.6364H106.584Z" fill="#0B4F8C"/>
</svg>
