<svg width="16" height="16" viewBox="0 0 16 16" fill="none" xmlns="http://www.w3.org/2000/svg">
<path fill-rule="evenodd" clip-rule="evenodd" d="M11.6464 1.64645C11.8417 1.45118 12.1583 1.45118 12.3536 1.64645L14.3536 3.64645C14.5488 3.84171 14.5488 4.15829 14.3536 4.35355L8.35355 10.3536C8.25979 10.4473 8.13261 10.5 8 10.5H6C5.72386 10.5 5.5 10.2761 5.5 10V8C5.5 7.86739 5.55268 7.74021 5.64645 7.64645L11.6464 1.64645ZM6.5 8.20711V9.5H7.79289L13.2929 4L12 2.70711L6.5 8.20711Z" fill="currentColor"/>
<path fill-rule="evenodd" clip-rule="evenodd" d="M10.1464 3.14645C10.3417 2.95118 10.6583 2.95118 10.8536 3.14645L12.8536 5.14645C13.0488 5.34171 13.0488 5.65829 12.8536 5.85355C12.6583 6.04882 12.3417 6.04882 12.1464 5.85355L10.1464 3.85355C9.95118 3.65829 9.95118 3.34171 10.1464 3.14645Z" fill="currentColor"/>
<path fill-rule="evenodd" clip-rule="evenodd" d="M2.29289 2.29289C2.48043 2.10536 2.73478 2 3 2H8.5C8.77614 2 9 2.22386 9 2.5C9 2.77614 8.77614 3 8.5 3L3 3L3 13H13V7.5C13 7.22386 13.2239 7 13.5 7C13.7761 7 14 7.22386 14 7.5V13C14 13.2652 13.8946 13.5196 13.7071 13.7071C13.5196 13.8946 13.2652 14 13 14H3C2.73478 14 2.48043 13.8946 2.29289 13.7071C2.10536 13.5196 2 13.2652 2 13V3C2 2.73478 2.10536 2.48043 2.29289 2.29289Z" fill="currentColor"/>
</svg>
