<svg width="18" height="18" viewBox="0 0 32 32" fill="none" xmlns="http://www.w3.org/2000/svg">
<path d="M20 5C20 4.20888 19.7654 3.43552 19.3259 2.77772C18.8864 2.11992 18.2617 1.60723 17.5307 1.30448C16.7998 1.00173 15.9956 0.92252 15.2197 1.07686C14.4437 1.2312 13.731 1.61216 13.1716 2.17157C12.6122 2.73098 12.2312 3.44372 12.0769 4.21964C11.9225 4.99556 12.0017 5.79983 12.3045 6.53074C12.6072 7.26164 13.1199 7.88635 13.7777 8.32588C14.4355 8.76541 15.2089 9 16 9C17.0609 9 18.0783 8.57857 18.8284 7.82843C19.5786 7.07828 20 6.06087 20 5ZM16 7C15.6045 7 15.2178 6.8827 14.8889 6.66294C14.56 6.44318 14.3036 6.13082 14.1523 5.76537C14.0009 5.39992 13.9613 4.99778 14.0384 4.60982C14.1156 4.22186 14.3061 3.86549 14.5858 3.58579C14.8655 3.30608 15.2219 3.1156 15.6098 3.03843C15.9978 2.96126 16.3999 3.00087 16.7654 3.15224C17.1308 3.30362 17.4432 3.55996 17.663 3.88886C17.8827 4.21776 18 4.60444 18 5C18 5.53044 17.7893 6.03914 17.4142 6.41422C17.0392 6.78929 16.5304 7 16 7ZM28.9375 10.9638C28.8237 10.4037 28.5178 9.90099 28.0728 9.54245C27.6277 9.18391 27.0715 8.99204 26.5 9H5.50002C4.93012 8.99998 4.37732 9.19468 3.93322 9.55183C3.48911 9.90898 3.18036 10.4071 3.05813 10.9638C2.93589 11.5204 3.0075 12.1021 3.2611 12.6125C3.51469 13.1228 3.93505 13.5312 4.45252 13.77H4.46877L10.8125 16.5638L8.18752 26.5288C7.91285 27.1338 7.88978 27.8231 8.12338 28.4452C8.35698 29.0672 8.82812 29.571 9.43314 29.8456C10.0382 30.1203 10.7275 30.1434 11.3496 29.9098C11.9716 29.6762 12.4754 29.205 12.75 28.6L16 22.9913L19.25 28.6C19.5388 29.1792 20.041 29.6239 20.651 29.8404C21.261 30.0569 21.9311 30.0285 22.5205 29.761C23.1099 29.4935 23.5726 29.0078 23.8112 28.4062C24.0498 27.8045 24.0458 27.1338 23.8 26.535L21.175 16.57L27.5188 13.7763H27.535C28.0608 13.5455 28.489 13.1377 28.7453 12.6238C29.0015 12.11 29.0696 11.5226 28.9375 10.9638ZM26.7125 11.9513L19.5963 15.0838C19.3784 15.1797 19.2019 15.3503 19.0986 15.5648C18.9953 15.7792 18.9718 16.0235 19.0325 16.2538L21.8913 27.125C21.9058 27.1832 21.9264 27.2398 21.9525 27.2938C21.9945 27.3835 22.0088 27.4836 21.9938 27.5815C21.9787 27.6794 21.935 27.7706 21.868 27.8436C21.8011 27.9165 21.714 27.968 21.6177 27.9914C21.5215 28.0148 21.4205 28.0091 21.3275 27.975C21.2032 27.9294 21.1021 27.8363 21.0463 27.7163C21.0336 27.6892 21.0194 27.6629 21.0038 27.6375L16.865 20.5C16.7771 20.3485 16.6509 20.2227 16.4991 20.1352C16.3473 20.0478 16.1752 20.0018 16 20.0018C15.8248 20.0018 15.6527 20.0478 15.5009 20.1352C15.3491 20.2227 15.2229 20.3485 15.135 20.5L11 27.6313C10.9844 27.6567 10.9702 27.683 10.9575 27.71C10.9017 27.8301 10.8006 27.9231 10.6763 27.9688C10.5833 28.0028 10.4823 28.0085 10.386 27.9851C10.2898 27.9617 10.2027 27.9103 10.1358 27.8373C10.0688 27.7643 10.025 27.6731 10.01 27.5752C9.99495 27.4774 10.0093 27.3772 10.0513 27.2875C10.0774 27.2335 10.0979 27.177 10.1125 27.1188L12.9675 16.25C13.0282 16.0198 13.0048 15.7755 12.9014 15.561C12.7981 15.3466 12.6216 15.176 12.4038 15.08L5.28752 11.9513C5.18537 11.9025 5.10278 11.8206 5.05325 11.7188C5.00373 11.617 4.9902 11.5014 5.01487 11.391C5.03955 11.2805 5.10097 11.1817 5.1891 11.1107C5.27722 11.0397 5.38684 11.0006 5.50002 11H26.5C26.6135 10.9998 26.7237 11.0382 26.8125 11.1089C26.9013 11.1797 26.9633 11.2785 26.9885 11.3892C27.0136 11.4998 27.0004 11.6158 26.9509 11.7179C26.9015 11.8201 26.8187 11.9024 26.7163 11.9513H26.7125Z" fill="#05080B"/>
</svg>
