<svg width="18" height="18" viewBox="0 0 32 32" fill="none" xmlns="http://www.w3.org/2000/svg">
<path fill-rule="evenodd" clip-rule="evenodd" d="M10.3608 5.05545C10.3249 5.05318 10.2631 5.055 10.1667 5.07129C9.03773 5.26209 8.00612 5.83522 7.24693 6.69769C6.6292 7.39945 6.22435 8.25582 6.07013 9.16692C5.97985 9.7003 5.98918 10.2809 6.02719 10.9324C6.25488 14.8358 7.90625 18.5336 10.6863 21.3137C13.5758 24.2032 17.4567 25.8734 21.5294 25.9931C22.0067 26.0071 22.4373 25.9969 22.8331 25.9299C23.7442 25.7757 24.6006 25.3708 25.3023 24.7531C26.2127 23.9518 26.8006 22.847 26.957 21.6446L26.9554 21.6439L26.9554 21.6438L21.1057 19.1315L21.1055 19.1316L21.1055 19.1315L17.9846 21.2163C17.9837 21.2169 17.9828 21.2175 17.982 21.2181C17.6947 21.4113 17.3622 21.5267 17.0169 21.553C16.6706 21.5793 16.3235 21.5149 16.0096 21.3663L16.004 21.3637C13.6727 20.2421 11.79 18.3642 10.6625 16.0358L10.6605 16.0317L10.6605 16.0317C10.5128 15.7231 10.4468 15.3818 10.4686 15.0404C10.4905 14.699 10.5996 14.3689 10.7855 14.0817L10.7894 14.0756L10.7894 14.0756L12.8703 10.9108L12.8684 10.9064L12.8684 10.9064L10.3608 5.05545ZM26.9582 21.6351L26.9581 21.6354L26.9582 21.6351ZM9.83339 3.09926C10.276 3.02446 11.018 2.98155 11.6448 3.51025C11.884 3.712 12.0735 3.96854 12.1959 4.26007L14.7047 10.1141C14.7051 10.115 14.7055 10.1158 14.7058 10.1166C14.8357 10.4168 14.89 10.7443 14.8639 11.0704C14.8378 11.3974 14.7316 11.7129 14.5547 11.9891L14.5482 11.9994L14.5481 11.9994L12.4646 15.1683C13.3945 17.0862 14.9454 18.6334 16.8655 19.5587L16.8695 19.556L16.8696 19.556L19.9921 17.4701C20.2692 17.283 20.5891 17.1688 20.922 17.1381C21.255 17.1075 21.5904 17.1613 21.897 17.2947C21.8982 17.2952 21.8995 17.2958 21.9007 17.2963L27.7404 19.8044C28.1401 19.9723 28.474 20.2663 28.6911 20.6417C28.9092 21.0189 28.9974 21.4574 28.9419 21.8896C28.7256 23.578 27.9015 25.1297 26.6238 26.2543C25.6413 27.1192 24.4424 27.6859 23.1669 27.9018C22.5804 28.0011 21.9981 28.0077 21.4707 27.9922C16.8887 27.8576 12.5228 25.9786 9.2721 22.7279C6.1445 19.6003 4.28674 15.4403 4.03058 11.0489C3.99117 10.3731 3.96795 9.60248 4.09818 8.83314C4.31408 7.55766 4.88083 6.35873 5.74569 5.37622C6.80857 4.16875 8.25281 3.36638 9.83339 3.09926Z" fill="#05080B"/>
</svg>
