<svg width="18" height="19" viewBox="0 0 18 19" fill="none" xmlns="http://www.w3.org/2000/svg">
<path d="M3.40812 15.2131C1.67112 13.4761 0.802626 12.6076 0.401313 11.6388C-0.133771 10.3469 -0.133771 8.89549 0.401313 7.60368C0.802626 6.63482 1.67112 5.76633 3.40812 4.02933C5.14511 2.29234 6.01361 1.42384 6.98246 1.02253C8.27427 0.487445 9.72573 0.487445 11.0175 1.02253C11.9864 1.42384 12.8549 2.29234 14.5919 4.02933C16.3289 5.76633 17.1974 6.63482 17.5987 7.60368C18.1338 8.89549 18.1338 10.3469 17.5987 11.6388C17.1974 12.6076 16.3289 13.4761 14.5919 15.2131C12.8549 16.9501 11.9864 17.8186 11.0175 18.2199C9.72573 18.755 8.27427 18.755 6.98246 18.2199C6.01361 17.8186 5.14511 16.9501 3.40812 15.2131Z" fill="#A2F2EE"/>
<circle cx="8.99864" cy="9.6212" r="5.27208" fill="#233955"/>
</svg>
