<svg width="21" height="20" viewBox="0 0 21 20" fill="none" xmlns="http://www.w3.org/2000/svg">
<path d="M17.9793 8.03281C17.6848 7.725 17.3801 7.40781 17.2652 7.12891C17.159 6.87344 17.1527 6.45 17.1465 6.03984C17.1348 5.27734 17.1223 4.41328 16.5215 3.8125C15.9207 3.21172 15.0566 3.19922 14.2941 3.1875C13.884 3.18125 13.4605 3.175 13.2051 3.06875C12.927 2.95391 12.609 2.64922 12.3012 2.35469C11.7621 1.83672 11.1496 1.25 10.334 1.25C9.51836 1.25 8.90664 1.83672 8.3668 2.35469C8.05898 2.64922 7.7418 2.95391 7.46289 3.06875C7.20898 3.175 6.78398 3.18125 6.37383 3.1875C5.61133 3.19922 4.74727 3.21172 4.14648 3.8125C3.5457 4.41328 3.53711 5.27734 3.52148 6.03984C3.51523 6.45 3.50898 6.87344 3.40273 7.12891C3.28789 7.40703 2.9832 7.725 2.68867 8.03281C2.1707 8.57188 1.58398 9.18437 1.58398 10C1.58398 10.8156 2.1707 11.4273 2.68867 11.9672C2.9832 12.275 3.28789 12.5922 3.40273 12.8711C3.50898 13.1266 3.51523 13.55 3.52148 13.9602C3.5332 14.7227 3.5457 15.5867 4.14648 16.1875C4.74727 16.7883 5.61133 16.8008 6.37383 16.8125C6.78398 16.8187 7.20742 16.825 7.46289 16.9312C7.74102 17.0461 8.05898 17.3508 8.3668 17.6453C8.90586 18.1633 9.51836 18.75 10.334 18.75C11.1496 18.75 11.7613 18.1633 12.3012 17.6453C12.609 17.3508 12.9262 17.0461 13.2051 16.9312C13.4605 16.825 13.884 16.8187 14.2941 16.8125C15.0566 16.8008 15.9207 16.7883 16.5215 16.1875C17.1223 15.5867 17.1348 14.7227 17.1465 13.9602C17.1527 13.55 17.159 13.1266 17.2652 12.8711C17.3801 12.593 17.6848 12.275 17.9793 11.9672C18.4973 11.4281 19.084 10.8156 19.084 10C19.084 9.18437 18.4973 8.57266 17.9793 8.03281ZM17.077 11.1023C16.7027 11.493 16.3152 11.8969 16.1098 12.393C15.9129 12.8695 15.9043 13.4141 15.8965 13.9414C15.8887 14.4883 15.8801 15.0609 15.6371 15.3031C15.3941 15.5453 14.8254 15.5547 14.2754 15.5625C13.748 15.5703 13.2035 15.5789 12.727 15.7758C12.2309 15.9812 11.827 16.3687 11.4363 16.743C11.0457 17.1172 10.6465 17.5 10.334 17.5C10.0215 17.5 9.61914 17.1156 9.23164 16.743C8.84414 16.3703 8.43711 15.9812 7.94102 15.7758C7.46445 15.5789 6.91992 15.5703 6.39258 15.5625C5.8457 15.5547 5.27305 15.5461 5.03086 15.3031C4.78867 15.0602 4.7793 14.4914 4.77148 13.9414C4.76367 13.4141 4.75508 12.8695 4.5582 12.393C4.35273 11.8969 3.96523 11.493 3.59102 11.1023C3.2168 10.7117 2.83398 10.3125 2.83398 10C2.83398 9.6875 3.21836 9.28516 3.59102 8.89766C3.96367 8.51016 4.35273 8.10313 4.5582 7.60703C4.75508 7.13047 4.76367 6.58594 4.77148 6.05859C4.7793 5.51172 4.78789 4.93906 5.03086 4.69687C5.27383 4.45469 5.84258 4.44531 6.39258 4.4375C6.91992 4.42969 7.46445 4.42109 7.94102 4.22422C8.43711 4.01875 8.84102 3.63125 9.23164 3.25703C9.62227 2.88281 10.0215 2.5 10.334 2.5C10.6465 2.5 11.0488 2.88437 11.4363 3.25703C11.8238 3.62969 12.2309 4.01875 12.727 4.22422C13.2035 4.42109 13.748 4.42969 14.2754 4.4375C14.8223 4.44531 15.3949 4.45391 15.6371 4.69687C15.8793 4.93984 15.8887 5.50859 15.8965 6.05859C15.9043 6.58594 15.9129 7.13047 16.1098 7.60703C16.3152 8.10313 16.7027 8.50703 17.077 8.89766C17.4512 9.28828 17.834 9.6875 17.834 10C17.834 10.3125 17.4496 10.7148 17.077 11.1023ZM13.9012 7.68281C13.9593 7.74086 14.0054 7.80979 14.0368 7.88566C14.0683 7.96154 14.0845 8.04287 14.0845 8.125C14.0845 8.20713 14.0683 8.28846 14.0368 8.36434C14.0054 8.44021 13.9593 8.50914 13.9012 8.56719L9.52617 12.9422C9.46813 13.0003 9.3992 13.0464 9.32332 13.0779C9.24745 13.1093 9.16612 13.1255 9.08398 13.1255C9.00185 13.1255 8.92052 13.1093 8.84465 13.0779C8.76877 13.0464 8.69984 13.0003 8.6418 12.9422L6.7668 11.0672C6.64952 10.9499 6.58364 10.7909 6.58364 10.625C6.58364 10.4591 6.64952 10.3001 6.7668 10.1828C6.88407 10.0655 7.04313 9.99965 7.20898 9.99965C7.37484 9.99965 7.5339 10.0655 7.65117 10.1828L9.08398 11.6164L13.0168 7.68281C13.0748 7.6247 13.1438 7.5786 13.2196 7.54715C13.2955 7.5157 13.3769 7.49951 13.459 7.49951C13.5411 7.49951 13.6224 7.5157 13.6983 7.54715C13.7742 7.5786 13.8431 7.6247 13.9012 7.68281Z" fill="#D6EBF8"/>
</svg>
