<svg width="12" height="12" viewBox="0 0 12 12" fill="none" xmlns="http://www.w3.org/2000/svg">
<path fill-rule="evenodd" clip-rule="evenodd" d="M5.34375 1.1875C3.04832 1.1875 1.1875 3.04832 1.1875 5.34375C1.1875 7.63918 3.04832 9.5 5.34375 9.5C7.63918 9.5 9.5 7.63918 9.5 5.34375C9.5 3.04832 7.63918 1.1875 5.34375 1.1875ZM0.3125 5.34375C0.3125 2.56507 2.56507 0.3125 5.34375 0.3125C8.12243 0.3125 10.375 2.56507 10.375 5.34375C10.375 8.12243 8.12243 10.375 5.34375 10.375C2.56507 10.375 0.3125 8.12243 0.3125 5.34375Z" fill="currentColor"/>
<path fill-rule="evenodd" clip-rule="evenodd" d="M8.28283 8.28283C8.45368 8.11197 8.73069 8.11197 8.90155 8.28283L11.5594 10.9406C11.7302 11.1115 11.7302 11.3885 11.5594 11.5594C11.3885 11.7302 11.1115 11.7302 10.9406 11.5594L8.28283 8.90155C8.11197 8.73069 8.11197 8.45368 8.28283 8.28283Z" fill="currentColor"/>
</svg>
