<svg width="11" height="12" viewBox="0 0 11 12" fill="none" xmlns="http://www.w3.org/2000/svg">
<path fill-rule="evenodd" clip-rule="evenodd" d="M10.2118 3.00693C10.3461 3.14117 10.3461 3.35883 10.2118 3.49307L6.08682 7.61807C5.95258 7.75231 5.73492 7.75231 5.60068 7.61807L4.125 6.14239L1.27432 8.99307C1.14008 9.12731 0.922425 9.12731 0.788182 8.99307C0.653939 8.85882 0.653939 8.64118 0.788182 8.50693L3.88193 5.41318C4.01617 5.27894 4.23383 5.27894 4.36807 5.41318L5.84375 6.88886L9.72568 3.00693C9.85993 2.87269 10.0776 2.87269 10.2118 3.00693Z" fill="currentColor"/>
<path fill-rule="evenodd" clip-rule="evenodd" d="M6.875 3.25C6.875 3.06015 7.0289 2.90625 7.21875 2.90625H9.96875C10.1586 2.90625 10.3125 3.06015 10.3125 3.25V6C10.3125 6.18985 10.1586 6.34375 9.96875 6.34375C9.7789 6.34375 9.625 6.18985 9.625 6V3.59375H7.21875C7.0289 3.59375 6.875 3.43985 6.875 3.25Z" fill="currentColor"/>
</svg>
