<svg width="21" height="21" viewBox="0 0 21 21" fill="none" xmlns="http://www.w3.org/2000/svg">
<path fill-rule="evenodd" clip-rule="evenodd" d="M3.49758 3.22988C3.78278 3.03543 4.17161 3.109 4.36606 3.39419L13.7411 17.1442C13.9355 17.4294 13.862 17.8182 13.5768 18.0127C13.2916 18.2071 12.9027 18.1336 12.7083 17.8484L3.33328 4.09836C3.13883 3.81317 3.21239 3.42434 3.49758 3.22988Z" fill="#87888A"/>
<path fill-rule="evenodd" clip-rule="evenodd" d="M6.62258 3.22988C6.90778 3.03543 7.29661 3.109 7.49106 3.39419L16.8661 17.1442C17.0605 17.4294 16.987 17.8182 16.7018 18.0127C16.4166 18.2071 16.0277 18.1336 15.8333 17.8484L6.45828 4.09836C6.26383 3.81317 6.33739 3.42434 6.62258 3.22988Z" fill="#87888A"/>
<path fill-rule="evenodd" clip-rule="evenodd" d="M16.77 3.28376C16.5146 3.05157 16.1193 3.07039 15.8871 3.3258L10.5746 9.16955C10.3425 9.42496 10.3613 9.82024 10.6167 10.0524C10.8721 10.2846 11.2674 10.2658 11.4996 10.0104L16.8121 4.16664C17.0443 3.91123 17.0254 3.51595 16.77 3.28376ZM9.58253 11.19C9.32712 10.9578 8.93184 10.9766 8.69964 11.232L3.38714 17.0758C3.15495 17.3312 3.17377 17.7265 3.42919 17.9587C3.6846 18.1909 4.07988 18.1721 4.31207 17.9166L9.62457 12.0729C9.85676 11.8175 9.83794 11.4222 9.58253 11.19Z" fill="#87888A"/>
</svg>
