<svg width="50" height="50" viewBox="0 0 50 50" fill="none" xmlns="http://www.w3.org/2000/svg">
<path d="M45.833 27.083C45.2805 27.083 44.7506 27.3025 44.3599 27.6932C43.9692 28.0839 43.7497 28.6138 43.7497 29.1663V37.9434C43.748 39.4828 43.1358 40.9587 42.0472 42.0472C40.9587 43.1358 39.4828 43.748 37.9434 43.7497H12.0559C10.5165 43.748 9.04064 43.1358 7.95211 42.0472C6.86359 40.9587 6.25133 39.4828 6.24967 37.9434V29.1663C6.24967 28.6138 6.03018 28.0839 5.63948 27.6932C5.24878 27.3025 4.71888 27.083 4.16634 27.083C3.61381 27.083 3.0839 27.3025 2.6932 27.6932C2.3025 28.0839 2.08301 28.6138 2.08301 29.1663V37.9434C2.08577 40.5876 3.13737 43.1226 5.00705 44.9923C6.87674 46.862 9.41179 47.9136 12.0559 47.9163H37.9434C40.5876 47.9136 43.1226 46.862 44.9923 44.9923C46.862 43.1226 47.9136 40.5876 47.9163 37.9434V29.1663C47.9163 28.6138 47.6969 28.0839 47.3062 27.6932C46.9155 27.3025 46.3855 27.083 45.833 27.083Z" fill="#233955"/>
<path d="M13.973 18.1398L22.9168 9.19604V35.4169C22.9168 35.9694 23.1363 36.4993 23.527 36.89C23.9177 37.2807 24.4476 37.5002 25.0001 37.5002C25.5527 37.5002 26.0826 37.2807 26.4733 36.89C26.864 36.4993 27.0835 35.9694 27.0835 35.4169V9.19604L36.0272 18.1398C36.4201 18.5193 36.9464 18.7293 37.4926 18.7245C38.0389 18.7198 38.5614 18.5007 38.9477 18.1144C39.3339 17.7281 39.553 17.2056 39.5578 16.6594C39.5625 16.1131 39.3525 15.5869 38.973 15.194L26.473 2.69396C26.0824 2.30339 25.5525 2.08398 25.0001 2.08398C24.4477 2.08398 23.9179 2.30339 23.5272 2.69396L11.0272 15.194C10.6477 15.5869 10.4377 16.1131 10.4425 16.6594C10.4472 17.2056 10.6663 17.7281 11.0526 18.1144C11.4388 18.5007 11.9614 18.7198 12.5076 18.7245C13.0539 18.7293 13.5801 18.5193 13.973 18.1398Z" fill="#233955"/>
</svg>
