<svg width="16" height="16" viewBox="0 0 16 16" fill="none" xmlns="http://www.w3.org/2000/svg">
<path d="M7.32816 9.87C7.99828 9.42387 8.50705 8.77392 8.77922 8.01628C9.05139 7.25863 9.07252 6.43351 8.83947 5.66293C8.60643 4.89236 8.13159 4.21723 7.48517 3.73739C6.83876 3.25755 6.05508 2.99847 5.25003 2.99847C4.44498 2.99847 3.66131 3.25755 3.01489 3.73739C2.36847 4.21723 1.89363 4.89236 1.66059 5.66293C1.42754 6.43351 1.44867 7.25863 1.72084 8.01628C1.99301 8.77392 2.50178 9.42387 3.17191 9.87C1.95971 10.3168 0.924472 11.1435 0.220656 12.2269C0.183666 12.2818 0.157972 12.3436 0.145069 12.4086C0.132166 12.4736 0.132311 12.5405 0.145494 12.6055C0.158678 12.6704 0.184638 12.7321 0.221865 12.7869C0.259092 12.8417 0.306844 12.8886 0.362345 12.9248C0.417846 12.961 0.479989 12.9858 0.545161 12.9978C0.610334 13.0097 0.677236 13.0086 0.741979 12.9945C0.806721 12.9804 0.868014 12.9536 0.922292 12.9156C0.976571 12.8776 1.02275 12.8291 1.05816 12.7731C1.51215 12.0749 2.13338 11.5011 2.86543 11.1039C3.59748 10.7066 4.41716 10.4986 5.25003 10.4986C6.0829 10.4986 6.90258 10.7066 7.63463 11.1039C8.36668 11.5011 8.98791 12.0749 9.44191 12.7731C9.51524 12.8821 9.62852 12.9579 9.75727 12.984C9.88601 13.0101 10.0199 12.9846 10.1299 12.9128C10.2399 12.841 10.3173 12.7288 10.3453 12.6005C10.3733 12.4721 10.3496 12.3379 10.2794 12.2269C9.57559 11.1435 8.54035 10.3168 7.32816 9.87ZM2.50003 6.75C2.50003 6.2061 2.66132 5.67441 2.96349 5.22218C3.26566 4.76994 3.69515 4.41747 4.19765 4.20933C4.70015 4.00119 5.25308 3.94673 5.78653 4.05284C6.31998 4.15895 6.80998 4.42086 7.19457 4.80545C7.57917 5.19005 7.84108 5.68005 7.94719 6.2135C8.0533 6.74695 7.99884 7.29988 7.7907 7.80238C7.58256 8.30487 7.23008 8.73436 6.77785 9.03654C6.32561 9.33871 5.79393 9.5 5.25003 9.5C4.52094 9.49917 3.82195 9.20917 3.3064 8.69363C2.79085 8.17808 2.50086 7.47909 2.50003 6.75ZM15.6338 12.9187C15.5227 12.9912 15.3874 13.0165 15.2577 12.9892C15.1279 12.9619 15.0144 12.8842 14.9419 12.7731C14.4885 12.0744 13.8673 11.5004 13.1351 11.1034C12.4029 10.7063 11.583 10.4989 10.75 10.5C10.6174 10.5 10.4902 10.4473 10.3965 10.3536C10.3027 10.2598 10.25 10.1326 10.25 10C10.25 9.86739 10.3027 9.74021 10.3965 9.64644C10.4902 9.55267 10.6174 9.5 10.75 9.5C11.155 9.49961 11.5549 9.40979 11.9212 9.23694C12.2874 9.06409 12.6109 8.81249 12.8687 8.5001C13.1264 8.18772 13.312 7.82227 13.4121 7.42986C13.5122 7.03745 13.5244 6.62777 13.4478 6.23009C13.3713 5.83241 13.2078 5.45655 12.9692 5.12937C12.7305 4.80218 12.4225 4.53175 12.0672 4.33739C11.7119 4.14303 11.3181 4.02954 10.9139 4.00504C10.5096 3.98053 10.105 4.04561 9.72878 4.19562C9.66745 4.22213 9.60142 4.23609 9.53461 4.23665C9.46779 4.23722 9.40154 4.22438 9.33976 4.19891C9.27799 4.17343 9.22195 4.13584 9.17495 4.08834C9.12796 4.04084 9.09096 3.9844 9.06614 3.92236C9.04133 3.86032 9.0292 3.79394 9.03047 3.72713C9.03174 3.66033 9.0464 3.59445 9.07356 3.5334C9.10073 3.47235 9.13985 3.41737 9.18862 3.3717C9.2374 3.32603 9.29483 3.29059 9.35753 3.2675C10.2184 2.92415 11.176 2.9118 12.0455 3.23281C12.915 3.55383 13.6348 4.18547 14.066 5.00588C14.4973 5.82629 14.6094 6.77735 14.3808 7.67557C14.1523 8.57379 13.5991 9.35554 12.8282 9.87C14.0403 10.3168 15.0756 11.1435 15.7794 12.2269C15.8518 12.3379 15.8772 12.4732 15.8499 12.603C15.8226 12.7327 15.7448 12.8463 15.6338 12.9187Z" fill="currentColor"/>
</svg>
